<svg xmlns="http://www.w3.org/2000/svg" viewBox="0 0 600 360" role="img" aria-labelledby="title desc">
<title id="title">聂元梓 · 墙上笔迹</title>
<desc id="desc">原创矢量卡牌插画：参照戴军帽的历史照片：短发、饱满面颊、细眉和较窄的笑眼，朴素军绿外套，墙上纸张与毛笔。</desc>
<defs>
    <linearGradient id="bg" x2="1" y2=".8"><stop stop-color="#c6ae8b"/><stop offset=".5" stop-color="#804d45"/><stop offset="1" stop-color="#322c3a"/></linearGradient>
    <radialGradient id="halo" cx=".43" cy=".27" r=".72"><stop stop-color="#f5db97" stop-opacity=".65"/><stop offset=".55" stop-color="#804d45" stop-opacity=".05"/><stop offset="1" stop-color="#322c3a" stop-opacity=".7"/></radialGradient>
    <linearGradient id="cloth" x2="1" y2=".7"><stop stop-color="#999080"/><stop offset=".4" stop-color="#60594e"/><stop offset="1" stop-color="#303d40"/></linearGradient>
    <linearGradient id="skin" x1="0" y1=".2" x2="1" y2=".7"><stop stop-color="#ffe7af"/><stop offset=".35" stop-color="#e5b582"/><stop offset=".7" stop-color="#b98265"/><stop offset="1" stop-color="#74544b"/></linearGradient>
    <linearGradient id="gold" x2=".6" y2="1"><stop stop-color="#fff0b9"/><stop offset=".45" stop-color="#ccac69"/><stop offset="1" stop-color="#806343"/></linearGradient>
    <linearGradient id="paper" x2=".2" y2="1"><stop stop-color="#f4e2af"/><stop offset="1" stop-color="#a89066"/></linearGradient>
    <radialGradient id="vignette"><stop offset=".6" stop-opacity="0"/><stop offset="1" stop-color="#11212d" stop-opacity=".64"/></radialGradient>
    <filter id="grain"><feTurbulence type="fractalNoise" baseFrequency=".65" numOctaves="3" stitchTiles="stitch"/><feColorMatrix type="saturate" values="0"/><feComponentTransfer><feFuncA type="linear" slope=".075"/></feComponentTransfer><feBlend in="SourceGraphic" mode="soft-light"/></filter>
    <clipPath id="frame"><rect width="600" height="360" rx="8"/></clipPath>
    <path id="star" d="m0-10 3 7 8 1-6 5 2 8-7-4-7 4 2-8-6-5 8-1Z"/>
  </defs>
<g clip-path="url(#frame)"><rect width="600" height="360" fill="url(#bg)"/>
<path d="M0 0h132l-16 360H0Zm468 0h132v360H481Z" fill="#5f3437" opacity=".4"/><path d="m24 53 119-29 18 196-126 12Z" fill="#e2c590" opacity=".16"/><path d="m49 70 71-18m-71 46 78-16m-77 37 62-10m-58 40 76-15m-73 38 62-12" fill="none" stroke="#ecd5a7" stroke-width="3" stroke-linecap="round" stroke-linejoin="round" opacity=".25"/><path d="m472 130 95-21 21 106-104 22Z" fill="#bb886c" opacity=".12"/><path d="m490 149 63-13m-61 28 51-10m-48 28 57-12" fill="none" stroke="#ddc59f" stroke-width="3" stroke-linecap="round" stroke-linejoin="round" opacity=".18"/>
<rect width="600" height="360" fill="url(#halo)"/>
<path d="M249 215h79l26 25 74 20q53 21 68 100H95q16-79 67-102l76-24Z" fill="url(#cloth)" stroke="#233943" stroke-width="3" /><path d="m254 207 62 1 19 33-42 29-48-34Z" fill="#b38366" /><path d="m243 230 50 28 4 40-53-28Z" fill="#9b9c76" stroke="#34494b" stroke-width="2" /><path d="m338 230-45 28 4 40 52-29Z" fill="#3f513d" stroke="#253a3e" stroke-width="2" /><path d="m244 237 38 23m-39 11-72 24m-19 18-20 47m170-65-2 65m73-91 17 91" fill="none" stroke="#b5bca2" stroke-width="2" stroke-linecap="round" stroke-linejoin="round" opacity=".45"/><path d="m164 309 71-8-1 41-68 3Zm188-8 72 8-1 35-69-2Z" fill="#465742" stroke="#7d9381" stroke-width="1.5" /><path d="m165 313 36 13 33-21m120 1 33 21 35-12" fill="none" stroke="#9ca890" stroke-width="1.6" stroke-linecap="round" stroke-linejoin="round" /><g fill="url(#gold)" stroke="#33453e"><circle cx="298" cy="291" r="4"/><circle cx="298" cy="327" r="4"/><circle cx="201" cy="325" r="3"/><circle cx="387" cy="325" r="3"/></g><path d="m244 239 25 10-1 14-24-10Z" fill="#963e35" stroke="#432b29" stroke-width="1.5" /><path d="m319 248 20-10 3 14-22 10Z" fill="#7d3430" stroke="#432b29" stroke-width="1.5" />
<path d="M227 100q-13 45 2 81l22 14 13-19 57 12 25-24 5-47-19-51-82-4Z" fill="#263b34" stroke="#20342e" stroke-width="2.5" /><path d="M233 83q45-27 91-4l22 49-5 49-23 30-26 15-34-9-23-32-12-41Z" fill="url(#skin)" stroke="#7d563f" stroke-width="2.5" /><path d="M227 132q-19-5-14 16 3 22 20 26m108-45q22-10 19 13-4 24-20 28" fill="#bf8866" stroke="#825c46" stroke-width="2" /><path d="m322 88 14 43-4 42-18 31-22 15 26-8 26-33 5-47Z" fill="#98694d" opacity=".4"/><path d="m228 151 24-10 24 15-12 27-26-5Zm73 6 31-16 11 17-18 23-19-1Z" fill="#d5a079" /><path d="M238 121q14-9 27-5m34 0q13-8 26-3" fill="none" stroke="#5a4533" stroke-width="3.5" stroke-linecap="round" stroke-linejoin="round" /><path d="M236 138q14-10 29 -1m31 -2q14-9 27 0" fill="none" stroke="#4f3e30" stroke-width="3" stroke-linecap="round" stroke-linejoin="round" /><ellipse cx="250" cy="136" rx="4.5" ry="3" fill="#27332c" /><ellipse cx="310" cy="133" rx="4.5" ry="3" fill="#27332c" /><path d="M237 147q14 6 27-1m33 -2q12 5 26-1" fill="none" stroke="#ac7d5c" stroke-width="1.5" stroke-linecap="round" stroke-linejoin="round" /><path d="M238 148q12 7 27-1m33 0q12 5 25-2" fill="none" stroke="#ad7a55" stroke-width="1.5" stroke-linecap="round" stroke-linejoin="round" /><path d="m276 132-5 23-10 12q13 13 31 1l-9-16" fill="url(#skin)" stroke="#a57350" stroke-width="2" /><path d="m267 171 9 2m8-2 8-2" fill="none" stroke="#6a4733" stroke-width="2.5" stroke-linecap="round" stroke-linejoin="round" /><path d="M260 189q13-9 24-5 12-4 25 0l-15 12-21 4Z" fill="#b77a5b" /><path d="M259 188q23 3 50-4" fill="none" stroke="#714832" stroke-width="2.6" stroke-linecap="round" stroke-linejoin="round" /><path d="M269 198q17 4 28-2m-26 16q16 5 30-2" fill="none" stroke="#e9bd89" stroke-width="2.5" stroke-linecap="round" stroke-linejoin="round" /><path d="m261 174-11 14 5 14m48-28 12 12-7 13" fill="none" stroke="#b47e56" stroke-width="1.6" stroke-linecap="round" stroke-linejoin="round" /><path d="M225 130q-10-58 23-70 31-17 55-8 40 9 44 54l-4 23-12-24-11-30-28-2-18 12-29 7-11 31Z" fill="#2b3d34" stroke="#20322c" stroke-width="2.5" /><path d="M224 87q-11-53 60-57 78 2 75 59l-40 6-52-1Z" fill="#687159" stroke="#263a34" stroke-width="2.5" /><path d="M226 69q61-12 130 2l-2 21-51-3-74 3Z" fill="#788369" stroke="#384938" stroke-width="2" /><path d="M220 87q70-13 145 1l-17 14q-66-9-133 5Z" fill="#3a4f3c" stroke="#263a34" stroke-width="2.5" /><use href="#star" transform="translate(293 73) scale(.8)" fill="#a34232" stroke="#57382c" stroke-width="1"/><path d="M237 65q23-20 48-18" fill="none" stroke="#c6c5a0" stroke-width="2" stroke-linecap="round" stroke-linejoin="round" opacity=".5"/>
<path d="m37 317 121-24 58 67H55Z" fill="url(#paper)" stroke="#9b7c57" stroke-width="2" /><path d="m66 318 71-16m-62 30 92-19m-84 35 94-23" fill="none" stroke="#846d54" stroke-width="2" stroke-linecap="round" stroke-linejoin="round" /><path d="m452 298 11 4-16 55-11-4Z" fill="#4b5c4d" stroke="#aeaa82" stroke-width="2" /><path d="m458 302q-10-24-5-49 12 12 15 27-2 16-10 22Z" fill="#24382f" /><path d="M418 346h68l-9 14h-50Z" fill="#36483d" stroke="#aaa47a" stroke-width="2" />
<g fill="#f1d49d" opacity=".5"><circle cx="118" cy="218" r="1.5"/><circle cx="437" cy="122" r="2"/><circle cx="521" cy="83" r="1.5"/></g><rect width="600" height="360" fill="url(#vignette)"/><rect width="600" height="360" fill="transparent" filter="url(#grain)"/></g>
</svg>
