<svg xmlns="http://www.w3.org/2000/svg" viewBox="0 0 600 360" role="img" aria-labelledby="title desc">
<title id="title">彭德怀 · 低头插袋</title>
<desc id="desc">原创 SVG 卡牌插画，参照照片中的低头插袋姿势绘制，保留身体朝向、视线和手臂关系；背景与构图作简化处理。</desc>
<defs>
    <linearGradient id="bg" x2="1" y2=".8"><stop stop-color="#bdbd8b"/><stop offset=".5" stop-color="#667754"/><stop offset="1" stop-color="#243c35"/></linearGradient>
    <radialGradient id="halo" cx=".43" cy=".27" r=".72"><stop stop-color="#f5db97" stop-opacity=".65"/><stop offset=".55" stop-color="#667754" stop-opacity=".05"/><stop offset="1" stop-color="#243c35" stop-opacity=".7"/></radialGradient>
    <linearGradient id="cloth" x2="1" y2=".7"><stop stop-color="#a3a37c"/><stop offset=".4" stop-color="#616e50"/><stop offset="1" stop-color="#304b3e"/></linearGradient>
    <linearGradient id="skin" x1="0" y1=".2" x2="1" y2=".7"><stop stop-color="#ffe7af"/><stop offset=".35" stop-color="#e5b582"/><stop offset=".7" stop-color="#b98265"/><stop offset="1" stop-color="#74544b"/></linearGradient>
    <linearGradient id="gold" x2=".6" y2="1"><stop stop-color="#fff0b9"/><stop offset=".45" stop-color="#ccac69"/><stop offset="1" stop-color="#806343"/></linearGradient>
    <linearGradient id="paper" x2=".2" y2="1"><stop stop-color="#f4e2af"/><stop offset="1" stop-color="#a89066"/></linearGradient>
    <radialGradient id="vignette"><stop offset=".6" stop-opacity="0"/><stop offset="1" stop-color="#11212d" stop-opacity=".64"/></radialGradient>
    <filter id="grain"><feTurbulence type="fractalNoise" baseFrequency=".65" numOctaves="3" stitchTiles="stitch"/><feColorMatrix type="saturate" values="0"/><feComponentTransfer><feFuncA type="linear" slope=".075"/></feComponentTransfer><feBlend in="SourceGraphic" mode="soft-light"/></filter>
    <clipPath id="frame"><rect width="600" height="360" rx="8"/></clipPath>
    <path id="star" d="m0-10 3 7 8 1-6 5 2 8-7-4-7 4 2-8-6-5 8-1Z"/>
  </defs>
<g clip-path="url(#frame)"><rect width="600" height="360" fill="url(#bg)"/><path d="M0 238 91 216 135 244 192 199 286 230 391 209 466 231 539 195 600 224v136H0Z" fill="#2c493d" opacity=".5"/><path d="M61 0 82 278m-4-99-43-59m39-17 43-47m386-56-16 282m9-121 56-61m-51-26-29-41" fill="none" stroke="#334f42" stroke-width="8" stroke-linecap="round" stroke-linejoin="round" opacity=".5"/><path d="M0 0h143l-17 141L0 165Zm489 0h111v148l-88-22Z" fill="#4b6550" opacity=".42"/><path d="m0 203 97-37 49 46H0Zm411-16 69-36 120 47H421Z" fill="#203d3f" opacity=".35"/><path d="M23 210h124m299-13h132" fill="none" stroke="#c5b18a" stroke-width="2" stroke-linecap="round" stroke-linejoin="round" opacity=".22"/><rect width="600" height="360" fill="url(#halo)"/>
<path d="M255 181h63l28 32 47 15q45 24 71 132H137q15-73 31-109 18-30 65-40Z" fill="url(#cloth)" stroke="#2d4247" stroke-width="3" /><path d="m241 203 44 24-18 50-41-36Z" fill="#acb59f" stroke="#455d5c" stroke-width="2" /><path d="m328 197-43 30-18 50 75-40Z" fill="#4f6869" stroke="#2d4447" stroke-width="2" /><path d="M275 276 262 360m-74-104-24 70m222-81 42 72" fill="none" stroke="#d0cbb0" stroke-width="2" stroke-linecap="round" stroke-linejoin="round" opacity=".4"/><path d="m183 292 47-11 9 18-45 12Zm164-17 42 4 14 21-45-7Z" fill="#38535a" stroke="#7e9290" stroke-width="2" /><ellipse cx="257" cy="258" rx="4" ry="4" fill="url(#gold)" stroke="#344a43"/><ellipse cx="310" cy="252" rx="4" ry="4" fill="url(#gold)" stroke="#344a43"/><ellipse cx="250" cy="294" rx="4" ry="4" fill="url(#gold)" stroke="#344a43"/><ellipse cx="316" cy="285" rx="4" ry="4" fill="url(#gold)" stroke="#344a43"/><ellipse cx="245" cy="329" rx="4" ry="4" fill="url(#gold)" stroke="#344a43"/><ellipse cx="323" cy="322" rx="4" ry="4" fill="url(#gold)" stroke="#344a43"/>
<g transform="translate(28 8) scale(.85 .84) rotate(-4 286 130)"><path d="M249 65q47-26 86 2 29 22 24 72l-13 42q-8 32-39 45l-33-6-29-24q-20-32-14-63l6-36Z" fill="url(#skin)" stroke="#75533f" stroke-width="2.5" /><path d="m321 82 25 37-9 47-23 37-31 19 25-1q31-12 39-41l12-48-8-35Z" fill="#845a47" opacity=".5"/><path d="M337 124q21-14 24 8 1 20-18 29l-7-2" fill="#bd8765" stroke="#7b5742" stroke-width="2" /><path d="m348 130-6 12 7-4" fill="none" stroke="#976849" stroke-width="2" stroke-linecap="round" stroke-linejoin="round" /><path d="M239 110q26-19 66-17l17 20-35-7-45 21Z" fill="#f6d5a0" opacity=".5"/><path d="m233 154 28-7 18 16-14 28-23-11Z" fill="#d5a17c" /><path d="M235 122q13-10 27-5m25-8q16-10 30-4" fill="none" stroke="#4c3c2f" stroke-width="4.5" stroke-linecap="round" stroke-linejoin="round" /><path d="M232 140q12-9 24-3m31-7q15-9 29-5" fill="none" stroke="#513c2d" stroke-width="2.8" stroke-linecap="round" stroke-linejoin="round" /><ellipse cx="244" cy="143" rx="4" ry="3" fill="#2c352d" /><ellipse cx="300" cy="134" rx="4.6" ry="3.2" fill="#29332c" /><path d="M260 137q-3 15-16 23-8 8 3 11 12 5 20-5l-1-9" fill="url(#skin)" stroke="#a27151" stroke-width="2" /><path d="m246 170 11 1" fill="none" stroke="#674831" stroke-width="2.6" stroke-linecap="round" stroke-linejoin="round" /><path d="M253 188q17-9 28-7l18-2-18 13-20 2Z" fill="#a87357" /><path d="M253 188q19-1 45-8" fill="none" stroke="#664736" stroke-width="2.6" stroke-linecap="round" stroke-linejoin="round" /><path d="M265 206q16 5 28-3" fill="none" stroke="#ecc28f" stroke-width="2.5" stroke-linecap="round" stroke-linejoin="round" /><path d="m257 174-10 12 10 17m46-32 13 14-7 16" fill="none" stroke="#ab7854" stroke-width="1.4" stroke-linecap="round" stroke-linejoin="round" /><path d="M251 93q26-9 54-4m-51 14 45-5M232 150q13 7 25-2m37-9q14 7 27-4m-54 67 15-1m-16 12 17-4" fill="none" stroke="#ae7a58" stroke-width="1.4" stroke-linecap="round" stroke-linejoin="round" /><path d="M225 130q-10-49 18-77 31-29 63-19 37 4 49 42l-4 65-14-24-6-43q-27-20-59-10l-23 18-15 41Z" fill="#2a3a38" stroke="#243933" stroke-width="2.5" /><path d="M241 67q24-24 48-25l23 14-32-1-32 20Z" fill="#697964" opacity=".6"/><path d="M242 72q27-20 51-20m-43 26 36-17m37-3 13 21" fill="none" stroke="#697964" stroke-width="1.8" stroke-linecap="round" stroke-linejoin="round" /><path d="M226 87q-25-50 46-65 72-10 87 49l-7 24-61-5Z" fill="url(#cloth)" stroke="#2a4237" stroke-width="2.4" /><path d="M216 81q65-15 146 0l-23 18-59-8-66 15Z" fill="#304938" stroke="#243931" stroke-width="2.5" /><path d="M238 52q23-19 48-20" fill="none" stroke="#c9c59d" stroke-width="2" stroke-linecap="round" stroke-linejoin="round" opacity=".55"/></g>


<path d="M204 234q-37 13-44 48l11 66 52-18 12-22-41-11 28-39Z" fill="url(#cloth)" stroke="#314b3d" stroke-width="2.5" /><path d="M380 237q40 10 54 45l7 50-58 4-24-25 45-15-42-32Z" fill="url(#cloth)" stroke="#314b3d" stroke-width="2.5" /><path d="m208 309 30 1-7 17-27 5Z" fill="#929a7d" stroke="#3b5140" stroke-width="1.5" /><path d="m357 310 24-7 17 15-20 10Z" fill="#929a7d" stroke="#3b5140" stroke-width="1.5" /><path d="m224 321 33-11 7 13-31 14Z" fill="#415940" stroke="#98a789" stroke-width="1.5" /><path d="m340 310 43 17-7 12-39-15Z" fill="#415940" stroke="#98a789" stroke-width="1.5" /><path d="m226 324 27-9m91 0 31 13" fill="none" stroke="#bdbe96" stroke-width="2" stroke-linecap="round" stroke-linejoin="round" /><rect width="600" height="360" fill="url(#vignette)"/><rect width="600" height="360" fill="transparent" filter="url(#grain)"/></g>
</svg>
