<svg xmlns="http://www.w3.org/2000/svg" viewBox="0 0 600 360" role="img" aria-labelledby="title desc">
<title id="title">杨成武 · 倚栏站立</title>
<desc id="desc">原创 SVG 卡牌插画，参照照片中的倚栏站立姿势绘制，保留身体朝向、视线和手臂关系；背景与构图作简化处理。</desc>
<defs>
    <linearGradient id="bg" x2="1" y2=".8"><stop stop-color="#bdbd8b"/><stop offset=".5" stop-color="#667754"/><stop offset="1" stop-color="#243c35"/></linearGradient>
    <radialGradient id="halo" cx=".43" cy=".27" r=".72"><stop stop-color="#f5db97" stop-opacity=".65"/><stop offset=".55" stop-color="#667754" stop-opacity=".05"/><stop offset="1" stop-color="#243c35" stop-opacity=".7"/></radialGradient>
    <linearGradient id="cloth" x2="1" y2=".7"><stop stop-color="#a3a37c"/><stop offset=".4" stop-color="#616e50"/><stop offset="1" stop-color="#304b3e"/></linearGradient>
    <linearGradient id="skin" x1="0" y1=".2" x2="1" y2=".7"><stop stop-color="#ffe7af"/><stop offset=".35" stop-color="#e5b582"/><stop offset=".7" stop-color="#b98265"/><stop offset="1" stop-color="#74544b"/></linearGradient>
    <linearGradient id="gold" x2=".6" y2="1"><stop stop-color="#fff0b9"/><stop offset=".45" stop-color="#ccac69"/><stop offset="1" stop-color="#806343"/></linearGradient>
    <linearGradient id="paper" x2=".2" y2="1"><stop stop-color="#f4e2af"/><stop offset="1" stop-color="#a89066"/></linearGradient>
    <radialGradient id="vignette"><stop offset=".6" stop-opacity="0"/><stop offset="1" stop-color="#11212d" stop-opacity=".64"/></radialGradient>
    <filter id="grain"><feTurbulence type="fractalNoise" baseFrequency=".65" numOctaves="3" stitchTiles="stitch"/><feColorMatrix type="saturate" values="0"/><feComponentTransfer><feFuncA type="linear" slope=".075"/></feComponentTransfer><feBlend in="SourceGraphic" mode="soft-light"/></filter>
    <clipPath id="frame"><rect width="600" height="360" rx="8"/></clipPath>
    <path id="star" d="m0-10 3 7 8 1-6 5 2 8-7-4-7 4 2-8-6-5 8-1Z"/>
  </defs>
<g clip-path="url(#frame)"><rect width="600" height="360" fill="url(#bg)"/><path d="M0 238 91 216 135 244 192 199 286 230 391 209 466 231 539 195 600 224v136H0Z" fill="#2c493d" opacity=".5"/><path d="M61 0 82 278m-4-99-43-59m39-17 43-47m386-56-16 282m9-121 56-61m-51-26-29-41" fill="none" stroke="#334f42" stroke-width="8" stroke-linecap="round" stroke-linejoin="round" opacity=".5"/><path d="M0 0h143l-17 141L0 165Zm489 0h111v148l-88-22Z" fill="#4b6550" opacity=".42"/><path d="m428 247 172 9v25l-172-12Z" fill="#9c8e6c" stroke="#405644" stroke-width="3" /><path d="m506 262h16v98h-16Z" fill="#665f47" stroke="#3b5341" stroke-width="2" /><rect width="600" height="360" fill="url(#halo)"/>
<path d="M247 161h75l37 29 19 93-3 77H196l-4-149Z" fill="url(#cloth)" stroke="#2e4539" stroke-width="2.5" /><path d="m249 152 59 3 15 29-41 24-36-22Z" fill="#b6916e" /><path d="m239 181 42 25 2 31-47-28Zm86-9-44 34 2 31 63-46Z" fill="#9a9e80" stroke="#40573f" stroke-width="2" /><path d="m196 293 185-7-2 20-182 10Z" fill="#4a4b35" stroke="#b1a57b" stroke-width="2" /><path d="m278 290h27v22h-27Z" fill="url(#gold)" stroke="#4d513a" stroke-width="2" /><ellipse cx="283" cy="239" rx="4" ry="4" fill="url(#gold)" stroke="#344a43"/><ellipse cx="283" cy="270" rx="4" ry="4" fill="url(#gold)" stroke="#344a43"/><path d="m219 230 42-2v29l-44 3Zm91-4 41-3 3 29-44 3Z" fill="#768366" stroke="#42533d" stroke-width="2" />
<g transform="translate(524 2) scale(-.79 .79)"><path d="M252 67q43-26 79-2 29 20 27 65l-12 50q-8 31-38 47l-35-6-24-24q-20-33-12-63l6-36Z" fill="url(#skin)" stroke="#75533f" stroke-width="2.5" /><path d="m321 82 25 37-9 47-23 37-31 19 25-1q31-12 39-41l12-48-8-35Z" fill="#845a47" opacity=".5"/><path d="M337 124q21-14 24 8 1 20-18 29l-7-2" fill="#bd8765" stroke="#7b5742" stroke-width="2" /><path d="m348 130-6 12 7-4" fill="none" stroke="#976849" stroke-width="2" stroke-linecap="round" stroke-linejoin="round" /><path d="M239 110q26-19 66-17l17 20-35-7-45 21Z" fill="#f6d5a0" opacity=".5"/><path d="m233 154 28-7 18 16-14 28-23-11Z" fill="#d5a17c" /><path d="M235 122q13-10 27-5m25-8q16-10 30-4" fill="none" stroke="#4c3c2f" stroke-width="4.5" stroke-linecap="round" stroke-linejoin="round" /><path d="M232 140q12-9 24-3m31-7q15-9 29-5" fill="none" stroke="#513c2d" stroke-width="2.8" stroke-linecap="round" stroke-linejoin="round" /><ellipse cx="244" cy="137" rx="4" ry="3" fill="#2c352d" /><ellipse cx="300" cy="127" rx="4.6" ry="3.2" fill="#29332c" /><path d="M260 137q-3 15-16 23-8 8 3 11 12 5 20-5l-1-9" fill="url(#skin)" stroke="#a27151" stroke-width="2" /><path d="m246 170 11 1" fill="none" stroke="#674831" stroke-width="2.6" stroke-linecap="round" stroke-linejoin="round" /><path d="M253 188q17-9 28-7l18-2-18 13-20 2Z" fill="#a87357" /><path d="M253 188q19-1 45-8" fill="none" stroke="#664736" stroke-width="2.6" stroke-linecap="round" stroke-linejoin="round" /><path d="M265 206q16 5 28-3" fill="none" stroke="#ecc28f" stroke-width="2.5" stroke-linecap="round" stroke-linejoin="round" /><path d="m257 174-10 12 10 17m46-32 13 14-7 16" fill="none" stroke="#ab7854" stroke-width="1.4" stroke-linecap="round" stroke-linejoin="round" /><path d="M225 130q-10-49 18-77 31-29 63-19 37 4 49 42l-4 65-14-24-6-43q-27-20-59-10l-23 18-15 41Z" fill="#2a3a38" stroke="#243933" stroke-width="2.5" /><path d="M241 67q24-24 48-25l23 14-32-1-32 20Z" fill="#697964" opacity=".6"/><path d="M242 72q27-20 51-20m-43 26 36-17m37-3 13 21" fill="none" stroke="#697964" stroke-width="1.8" stroke-linecap="round" stroke-linejoin="round" /><path d="M226 87q-25-50 46-65 72-10 87 49l-7 24-61-5Z" fill="url(#cloth)" stroke="#2a4237" stroke-width="2.4" /><path d="M216 81q65-15 146 0l-23 18-59-8-66 15Z" fill="#304938" stroke="#243931" stroke-width="2.5" /><path d="M238 52q23-19 48-20" fill="none" stroke="#c9c59d" stroke-width="2" stroke-linecap="round" stroke-linejoin="round" opacity=".55"/><use href="#star" transform="translate(288 69) scale(.7)" fill="#a3523e"/></g>
<path d="M229 188q-28 3-41 32l-24 99 28 10 34-91Z" fill="url(#cloth)" stroke="#344b39" stroke-width="2.5" /><path d="M346 188q30 2 47 29l24 22 78-9 8 30-98 15-47-43Z" fill="url(#cloth)" stroke="#344b39" stroke-width="2.5" /><g transform="translate(169 331) rotate(77)"><path d="M0 0q-6-12 1-17l13 2 10-3q17-3 25 10l-4 11-23 4-15-2Z" fill="url(#skin)" stroke="#94654c" stroke-width="1.8" /><path d="m13-9 20 8m-11-14 17 9m-5-14 10 8" fill="none" stroke="#ac7752" stroke-width="1.2" stroke-linecap="round" stroke-linejoin="round" /></g><g transform="translate(494 251) rotate(-13)"><path d="M0 0q-6-12 1-17l13 2 10-3q17-3 25 10l-4 11-23 4-15-2Z" fill="url(#skin)" stroke="#94654c" stroke-width="1.8" /><path d="m13-9 20 8m-11-14 17 9m-5-14 10 8" fill="none" stroke="#ac7752" stroke-width="1.2" stroke-linecap="round" stroke-linejoin="round" /></g><path d="m484 238 12 25m-303 55 25 7" fill="none" stroke="#b4b697" stroke-width="2" stroke-linecap="round" stroke-linejoin="round" />

<rect width="600" height="360" fill="url(#vignette)"/><rect width="600" height="360" fill="transparent" filter="url(#grain)"/></g>
</svg>
