<svg xmlns="http://www.w3.org/2000/svg" viewBox="0 0 600 360" role="img" aria-labelledby="title desc">
<title id="title">姚文元 · 持稿发言</title>
<desc id="desc">原创 SVG 卡牌插画，参照照片中的持稿发言姿势绘制，保留身体朝向、视线和手臂关系；背景与构图作简化处理。</desc>
<defs>
    <linearGradient id="bg" x2="1" y2=".8"><stop stop-color="#c6ae8b"/><stop offset=".5" stop-color="#804d45"/><stop offset="1" stop-color="#322c3a"/></linearGradient>
    <radialGradient id="halo" cx=".43" cy=".27" r=".72"><stop stop-color="#f5db97" stop-opacity=".65"/><stop offset=".55" stop-color="#804d45" stop-opacity=".05"/><stop offset="1" stop-color="#322c3a" stop-opacity=".7"/></radialGradient>
    <linearGradient id="cloth" x2="1" y2=".7"><stop stop-color="#999080"/><stop offset=".4" stop-color="#60594e"/><stop offset="1" stop-color="#303d40"/></linearGradient>
    <linearGradient id="skin" x1="0" y1=".2" x2="1" y2=".7"><stop stop-color="#ffe7af"/><stop offset=".35" stop-color="#e5b582"/><stop offset=".7" stop-color="#b98265"/><stop offset="1" stop-color="#74544b"/></linearGradient>
    <linearGradient id="gold" x2=".6" y2="1"><stop stop-color="#fff0b9"/><stop offset=".45" stop-color="#ccac69"/><stop offset="1" stop-color="#806343"/></linearGradient>
    <linearGradient id="paper" x2=".2" y2="1"><stop stop-color="#f4e2af"/><stop offset="1" stop-color="#a89066"/></linearGradient>
    <radialGradient id="vignette"><stop offset=".6" stop-opacity="0"/><stop offset="1" stop-color="#11212d" stop-opacity=".64"/></radialGradient>
    <filter id="grain"><feTurbulence type="fractalNoise" baseFrequency=".65" numOctaves="3" stitchTiles="stitch"/><feColorMatrix type="saturate" values="0"/><feComponentTransfer><feFuncA type="linear" slope=".075"/></feComponentTransfer><feBlend in="SourceGraphic" mode="soft-light"/></filter>
    <clipPath id="frame"><rect width="600" height="360" rx="8"/></clipPath>
    <path id="star" d="m0-10 3 7 8 1-6 5 2 8-7-4-7 4 2-8-6-5 8-1Z"/>
  <linearGradient id="neckSkin" x1="1" y1=".3" x2="0" y2=".8"><stop stop-color="#edc291"/><stop offset=".48" stop-color="#c3926e"/><stop offset="1" stop-color="#875e4b"/></linearGradient>
</defs>
<g clip-path="url(#frame)"><rect width="600" height="360" fill="url(#bg)"/><path d="M0 0h125v360H0Zm467 0h133v360H486Z" fill="#233948" opacity=".36"/><path d="M42 0v304m38-304v272m444-272v289m-32-289v257" fill="none" stroke="#d8c7a0" stroke-width="3" stroke-linecap="round" stroke-linejoin="round" opacity=".2"/><path d="m0 246 155-45 445 11v57L0 289Z" fill="#89795f" opacity=".23"/><path d="m0 319 600-9v50H0Z" fill="#605a45" stroke="#a99770" stroke-width="3" /><path d="M0 330 600 321m-527 7v32m74-34v34m294-42v42" fill="none" stroke="#aa9875" stroke-width="4" stroke-linecap="round" stroke-linejoin="round" /><rect width="600" height="360" fill="url(#halo)"/>
<path d="M224 174h70l32 29 47 54-44 103H125l5-91 58-76Z" fill="url(#cloth)" stroke="#543f3b" stroke-width="3" /><g aria-label="颈部"><path d="M228 141Q241 169 263 181Q268 205 271 233L212 192Q224 169 228 141Z" fill="url(#neckSkin)" /><path d="M229 152Q238 174 263 181L266 193Q247 195 225 175Z" fill="#654a3c" opacity=".32"/><path d="M263 198 267 224" fill="none" stroke="#e9bd8b" stroke-width="1.6" stroke-linecap="round" opacity=".4"/></g><path d="M212 192 271 233 259 266 199 227ZM296 195 271 233 259 266 323 207Z" fill="#838784" stroke="#4a4642" stroke-width="2" /><path d="m259 269-12 91m-68-123-40 51" fill="none" stroke="#b9b8a4" stroke-width="2" stroke-linecap="round" stroke-linejoin="round" /><ellipse cx="254" cy="297" rx="4" ry="4" fill="url(#gold)" stroke="#344a43"/>
<g transform="translate(477 27) scale(-.72 .72) rotate(-22 285 150)"><path d="M260 65q42-21 72 15l16 44-11 57-26 37-28 11-28-17-6-21-17-5 6-12-20-10 23-20-4-20 12-24Z" fill="url(#skin)" stroke="#75533f" stroke-width="2.5" /><path d="m321 82 25 37-9 47-23 37-31 19 25-1q31-12 39-41l12-48-8-35Z" fill="#845a47" opacity=".5"/><path d="M337 124q21-14 24 8 1 20-18 29l-7-2" fill="#bd8765" stroke="#7b5742" stroke-width="2" /><path d="m348 130-6 12 7-4" fill="none" stroke="#976849" stroke-width="2" stroke-linecap="round" stroke-linejoin="round" /><path d="M239 110q26-19 66-17l17 20-35-7-45 21Z" fill="#f6d5a0" opacity=".5"/><path d="m233 154 28-7 18 16-14 28-23-11Z" fill="#d5a17c" /><path d="M235 122q13-10 27-5m25-8q16-10 30-4" fill="none" stroke="#4c3c2f" stroke-width="4.5" stroke-linecap="round" stroke-linejoin="round" /><path d="M232 140q12-9 24-3m31-7q15-9 29-5" fill="none" stroke="#513c2d" stroke-width="2.8" stroke-linecap="round" stroke-linejoin="round" /><ellipse cx="244" cy="137" rx="4" ry="3" fill="#2c352d" /><path d="M243 142q-5 11-20 22 6 8 19 5l4-10" fill="url(#skin)" stroke="#a27151" stroke-width="2" /><path d="m246 170 11 1" fill="none" stroke="#674831" stroke-width="2.6" stroke-linecap="round" stroke-linejoin="round" /><path d="M253 188q17-9 28-7l18-2-18 13-20 2Z" fill="#a87357" /><path d="M253 188q19-1 45-8" fill="none" stroke="#664736" stroke-width="2.6" stroke-linecap="round" stroke-linejoin="round" /><path d="M265 206q16 5 28-3" fill="none" stroke="#ecc28f" stroke-width="2.5" stroke-linecap="round" stroke-linejoin="round" /><path d="m257 174-10 12 10 17m46-32 13 14-7 16" fill="none" stroke="#ab7854" stroke-width="1.4" stroke-linecap="round" stroke-linejoin="round" /><path d="M226 129q-11-50 19-85 24-23 58-17 37 4 52 36l-5 77-11-20-4-50q-13-24-37-28-29-2-45 20l-16 45-3 20Z" fill="#2a3a38" stroke="#5e6f61" stroke-width="2" /><path d="M233 98q0-31 17-49m80 5q15 16 16 42" fill="none" stroke="#697964" stroke-width="2" stroke-linecap="round" stroke-linejoin="round" /></g>
<path d="M169 216q-37 7-35 52l56 61 99-13-3-33-85-4-15-36Z" fill="url(#cloth)" stroke="#54433f" stroke-width="2.5" /><path d="M312 209q33 16 48 56l-40 35-31-16 25-33-25-22Z" fill="url(#cloth)" stroke="#554440" stroke-width="2.5" />
<g transform="translate(280 258) rotate(5)"><path d="m0 0 105-17 43 29-120 25Z" fill="url(#paper)" stroke="#9a835b" stroke-width="1.5" /><path d="m18 5 79-12m-67 24 82-14m-69 25 57-10" fill="none" stroke="#8e7f60" stroke-width="1.4" stroke-linecap="round" stroke-linejoin="round" /></g><g transform="translate(268 283) rotate(-20)"><path d="M0 0q-6-12 1-17l13 2 10-3q17-3 25 10l-4 11-23 4-15-2Z" fill="url(#skin)" stroke="#94654c" stroke-width="1.8" /><path d="m13-9 20 8m-11-14 17 9m-5-14 10 8" fill="none" stroke="#ac7752" stroke-width="1.2" stroke-linecap="round" stroke-linejoin="round" /></g><g transform="translate(340 282) rotate(163)"><path d="M0 0q-6-12 1-17l13 2 10-3q17-3 25 10l-4 11-23 4-15-2Z" fill="url(#skin)" stroke="#94654c" stroke-width="1.8" /><path d="m13-9 20 8m-11-14 17 9m-5-14 10 8" fill="none" stroke="#ac7752" stroke-width="1.2" stroke-linecap="round" stroke-linejoin="round" /></g><path d="m402 250 31-58 8 2-30 64Z" fill="#424e46" stroke="#b3b9a1" stroke-width="2" /><ellipse cx="437" cy="187" rx="10" ry="21" fill="#7e8d81" transform="rotate(27 437 187)"/><path d="m429 210-6 105 32 7" fill="none" stroke="#788c7f" stroke-width="4" stroke-linecap="round" stroke-linejoin="round" />
<rect width="600" height="360" fill="url(#vignette)"/><rect width="600" height="360" fill="transparent" filter="url(#grain)"/></g>
</svg>
