<svg xmlns="http://www.w3.org/2000/svg" viewBox="0 0 600 360" role="img" aria-labelledby="title desc">
<title id="title">叶群 · 膝上叠手</title>
<desc id="desc">原创 SVG 卡牌插画，参照照片中的膝上叠手姿势绘制，保留身体朝向、视线和手臂关系；背景与构图作简化处理。</desc>
<defs>
    <linearGradient id="bg" x2="1" y2=".8"><stop stop-color="#bdbd8b"/><stop offset=".5" stop-color="#667754"/><stop offset="1" stop-color="#243c35"/></linearGradient>
    <radialGradient id="halo" cx=".43" cy=".27" r=".72"><stop stop-color="#f5db97" stop-opacity=".65"/><stop offset=".55" stop-color="#667754" stop-opacity=".05"/><stop offset="1" stop-color="#243c35" stop-opacity=".7"/></radialGradient>
    <linearGradient id="cloth" x2="1" y2=".7"><stop stop-color="#a3a37c"/><stop offset=".4" stop-color="#616e50"/><stop offset="1" stop-color="#304b3e"/></linearGradient>
    <linearGradient id="skin" x1="0" y1=".2" x2="1" y2=".7"><stop stop-color="#ffe7af"/><stop offset=".35" stop-color="#e5b582"/><stop offset=".7" stop-color="#b98265"/><stop offset="1" stop-color="#74544b"/></linearGradient>
    <linearGradient id="gold" x2=".6" y2="1"><stop stop-color="#fff0b9"/><stop offset=".45" stop-color="#ccac69"/><stop offset="1" stop-color="#806343"/></linearGradient>
    <linearGradient id="paper" x2=".2" y2="1"><stop stop-color="#f4e2af"/><stop offset="1" stop-color="#a89066"/></linearGradient>
    <radialGradient id="vignette"><stop offset=".6" stop-opacity="0"/><stop offset="1" stop-color="#11212d" stop-opacity=".64"/></radialGradient>
    <filter id="grain"><feTurbulence type="fractalNoise" baseFrequency=".65" numOctaves="3" stitchTiles="stitch"/><feColorMatrix type="saturate" values="0"/><feComponentTransfer><feFuncA type="linear" slope=".075"/></feComponentTransfer><feBlend in="SourceGraphic" mode="soft-light"/></filter>
    <clipPath id="frame"><rect width="600" height="360" rx="8"/></clipPath>
    <path id="star" d="m0-10 3 7 8 1-6 5 2 8-7-4-7 4 2-8-6-5 8-1Z"/>
  </defs>
<g clip-path="url(#frame)"><rect width="600" height="360" fill="url(#bg)"/><path d="M0 238 91 216 135 244 192 199 286 230 391 209 466 231 539 195 600 224v136H0Z" fill="#2c493d" opacity=".5"/><path d="M61 0 82 278m-4-99-43-59m39-17 43-47m386-56-16 282m9-121 56-61m-51-26-29-41" fill="none" stroke="#334f42" stroke-width="8" stroke-linecap="round" stroke-linejoin="round" opacity=".5"/><path d="M0 0h143l-17 141L0 165Zm489 0h111v148l-88-22Z" fill="#4b6550" opacity=".42"/><path d="M94 164q-16 6-24 31l-9 165h31l19-137 318 6 18 131h32l-15-177Z" fill="#637052" stroke="#334c3b" stroke-width="3" /><path d="m89 181 362 16m-367 14 364 15" fill="none" stroke="#bbc29b" stroke-width="2" stroke-linecap="round" stroke-linejoin="round" /><rect width="600" height="360" fill="url(#halo)"/>
<path d="M275 171h63l49 35 18 91-58 63H171l-13-69 75-93Z" fill="url(#cloth)" stroke="#2d4537" stroke-width="3" /><path d="m272 164 52-6 25 47-47 21-44-28Z" fill="#c29a75" /><path d="m261 182 42 42-12 29-40-37Zm84-9-42 51-12 29 67-55Z" fill="#d5d4b3" stroke="#7c8973" stroke-width="2" /><path d="M259 287q39-24 90-9l56 82H201Z" fill="#344e3c" stroke="#7d9076" stroke-width="2" /><path d="m264 300 67 11 44 49" fill="none" stroke="#9fa88b" stroke-width="2" stroke-linecap="round" stroke-linejoin="round" opacity=".55"/>
<g transform="translate(546 25) scale(-.78 .78) rotate(6 286 140)"><path d="M252 67q43-26 79-2 29 20 27 65l-12 50q-8 31-38 47l-35-6-24-24q-20-33-12-63l6-36Z" fill="url(#skin)" stroke="#75533f" stroke-width="2.5" /><path d="m321 82 25 37-9 47-23 37-31 19 25-1q31-12 39-41l12-48-8-35Z" fill="#845a47" opacity=".5"/><path d="M337 124q21-14 24 8 1 20-18 29l-7-2" fill="#bd8765" stroke="#7b5742" stroke-width="2" /><path d="m348 130-6 12 7-4" fill="none" stroke="#976849" stroke-width="2" stroke-linecap="round" stroke-linejoin="round" /><path d="M239 110q26-19 66-17l17 20-35-7-45 21Z" fill="#f6d5a0" opacity=".5"/><path d="m233 154 28-7 18 16-14 28-23-11Z" fill="#d5a17c" /><path d="M235 122q13-10 27-5m25-8q16-10 30-4" fill="none" stroke="#4c3c2f" stroke-width="3.2" stroke-linecap="round" stroke-linejoin="round" /><path d="M232 140q12-9 24-3m31-7q15-9 29-5" fill="none" stroke="#513c2d" stroke-width="2.8" stroke-linecap="round" stroke-linejoin="round" /><ellipse cx="244" cy="137" rx="4" ry="3" fill="#2c352d" /><ellipse cx="300" cy="127" rx="4.6" ry="3.2" fill="#29332c" /><path d="M260 137q-3 15-16 23-8 8 3 11 12 5 20-5l-1-9" fill="url(#skin)" stroke="#a27151" stroke-width="2" /><path d="m246 170 11 1" fill="none" stroke="#674831" stroke-width="2.6" stroke-linecap="round" stroke-linejoin="round" /><path d="M251 188q25-13 53-8l-12 19-17 8-18-8Z" fill="#754932" /><path d="m258 186 38-3-8 9-22 3Z" fill="#f4d6a3" /><path d="M265 206q16 5 28-3" fill="none" stroke="#ecc28f" stroke-width="2.5" stroke-linecap="round" stroke-linejoin="round" /><path d="m257 174-10 12 10 17m46-32 13 14-7 16" fill="none" stroke="#ab7854" stroke-width="1.4" stroke-linecap="round" stroke-linejoin="round" /><path d="M225 124q-13-52 18-74 34-26 65-15 44 11 50 56l-9 52-13 16-2-43-5-41q-26 0-43-13l-30 21-19 23-5 42Z" fill="#2a3a38" stroke="#253a34" stroke-width="2.5" /><path d="M237 78q20-24 45-29m-42 36 54-24m19-9 21 31" fill="none" stroke="#697964" stroke-width="2" stroke-linecap="round" stroke-linejoin="round" /><path d="m227 150 4 31 18 12-4-18Zm112 8-10 30 16-10 12-30Z" fill="#2a3a38" /></g>
<path d="M237 194q-46 3-56 47l16 57 74 4 6-29-49-12 28-34Z" fill="url(#cloth)" stroke="#344e3c" stroke-width="2.5" /><path d="M362 198q31 21 31 54l-46 42-49-11 4-26 26 6 16-30Z" fill="url(#cloth)" stroke="#344e3c" stroke-width="2.5" />
<g transform="translate(263 280) rotate(0)"><path d="M0 0q-6-12 1-17l13 2 10-3q17-3 25 10l-4 11-23 4-15-2Z" fill="url(#skin)" stroke="#94654c" stroke-width="1.8" /><path d="m13-9 20 8m-11-14 17 9m-5-14 10 8" fill="none" stroke="#ac7752" stroke-width="1.2" stroke-linecap="round" stroke-linejoin="round" /></g><g transform="translate(322 279) rotate(169)"><path d="M0 0q-6-12 1-17l13 2 10-3q17-3 25 10l-4 11-23 4-15-2Z" fill="url(#skin)" stroke="#94654c" stroke-width="1.8" /><path d="m13-9 20 8m-11-14 17 9m-5-14 10 8" fill="none" stroke="#ac7752" stroke-width="1.2" stroke-linecap="round" stroke-linejoin="round" /></g><path d="m275 280 27-3m-16 11 24-3" fill="none" stroke="#b78261" stroke-width="1.4" stroke-linecap="round" stroke-linejoin="round" />
<rect width="600" height="360" fill="url(#vignette)"/><rect width="600" height="360" fill="transparent" filter="url(#grain)"/></g>
</svg>
