<svg xmlns="http://www.w3.org/2000/svg" viewBox="0 0 600 360" role="img" aria-labelledby="title desc">
<title id="title">朱德 · 微笑敬礼</title>
<desc id="desc">原创 SVG 卡牌插画，参照照片中的微笑敬礼姿势绘制，保留身体朝向、视线和手臂关系；背景与构图作简化处理。</desc>
<defs>
    <linearGradient id="bg" x2="1" y2=".8"><stop stop-color="#bdbd8b"/><stop offset=".5" stop-color="#667754"/><stop offset="1" stop-color="#243c35"/></linearGradient>
    <radialGradient id="halo" cx=".43" cy=".27" r=".72"><stop stop-color="#f5db97" stop-opacity=".65"/><stop offset=".55" stop-color="#667754" stop-opacity=".05"/><stop offset="1" stop-color="#243c35" stop-opacity=".7"/></radialGradient>
    <linearGradient id="cloth" x2="1" y2=".7"><stop stop-color="#a3a37c"/><stop offset=".4" stop-color="#616e50"/><stop offset="1" stop-color="#304b3e"/></linearGradient>
    <linearGradient id="skin" x1="0" y1=".2" x2="1" y2=".7"><stop stop-color="#ffe7af"/><stop offset=".35" stop-color="#e5b582"/><stop offset=".7" stop-color="#b98265"/><stop offset="1" stop-color="#74544b"/></linearGradient>
    <linearGradient id="gold" x2=".6" y2="1"><stop stop-color="#fff0b9"/><stop offset=".45" stop-color="#ccac69"/><stop offset="1" stop-color="#806343"/></linearGradient>
    <linearGradient id="paper" x2=".2" y2="1"><stop stop-color="#f4e2af"/><stop offset="1" stop-color="#a89066"/></linearGradient>
    <radialGradient id="vignette"><stop offset=".6" stop-opacity="0"/><stop offset="1" stop-color="#11212d" stop-opacity=".64"/></radialGradient>
    <filter id="grain"><feTurbulence type="fractalNoise" baseFrequency=".65" numOctaves="3" stitchTiles="stitch"/><feColorMatrix type="saturate" values="0"/><feComponentTransfer><feFuncA type="linear" slope=".075"/></feComponentTransfer><feBlend in="SourceGraphic" mode="soft-light"/></filter>
    <clipPath id="frame"><rect width="600" height="360" rx="8"/></clipPath>
    <path id="star" d="m0-10 3 7 8 1-6 5 2 8-7-4-7 4 2-8-6-5 8-1Z"/>
  </defs>
<g clip-path="url(#frame)"><rect width="600" height="360" fill="url(#bg)"/><path d="M0 0h125v360H0Zm467 0h133v360H486Z" fill="#233948" opacity=".36"/><path d="M42 0v304m38-304v272m444-272v289m-32-289v257" fill="none" stroke="#d8c7a0" stroke-width="3" stroke-linecap="round" stroke-linejoin="round" opacity=".2"/><path d="m0 246 155-45 445 11v57L0 289Z" fill="#89795f" opacity=".23"/><path d="m0 0 155 42-12 230L0 234Zm432 0h168v360H475Z" fill="#365343" opacity=".26"/><path d="m49 64 43 203m416-165 29 211" fill="none" stroke="#b2b999" stroke-width="2" stroke-linecap="round" stroke-linejoin="round" opacity=".25"/><rect width="600" height="360" fill="url(#halo)"/>
<path d="M263 183h76l30 28 87 62 33 87H116l9-82 97-76Z" fill="url(#cloth)" stroke="#2f4938" stroke-width="3" /><path d="m270 169 57 5 17 39-52 27-37-31Z" fill="#c0966d" /><path d="m249 202 43 36-7 40-57-52Zm96-6-53 42-7 40 77-50Z" fill="#8f9a7e" stroke="#354e38" stroke-width="2" /><path d="m228 264 45-2v34l-45 4Zm102-6 59-3v31l-59 7Z" fill="#6e8066" stroke="#3c563c" stroke-width="1.7" /><ellipse cx="286" cy="300" rx="4" ry="4" fill="url(#gold)" stroke="#344a43"/><ellipse cx="284" cy="337" rx="4" ry="4" fill="url(#gold)" stroke="#344a43"/>
<g transform="translate(555 12) scale(-.86 .86) rotate(3 286 140)"><path d="M249 65q47-26 86 2 29 22 24 72l-13 42q-8 32-39 45l-33-6-29-24q-20-32-14-63l6-36Z" fill="url(#skin)" stroke="#75533f" stroke-width="2.5" /><path d="m321 82 25 37-9 47-23 37-31 19 25-1q31-12 39-41l12-48-8-35Z" fill="#845a47" opacity=".5"/><path d="M337 124q21-14 24 8 1 20-18 29l-7-2" fill="#bd8765" stroke="#7b5742" stroke-width="2" /><path d="m348 130-6 12 7-4" fill="none" stroke="#976849" stroke-width="2" stroke-linecap="round" stroke-linejoin="round" /><path d="M239 110q26-19 66-17l17 20-35-7-45 21Z" fill="#f6d5a0" opacity=".5"/><path d="m233 154 28-7 18 16-14 28-23-11Z" fill="#d5a17c" /><path d="M235 122q13-10 27-5m25-8q16-10 30-4" fill="none" stroke="#4c3c2f" stroke-width="4.5" stroke-linecap="round" stroke-linejoin="round" /><path d="M232 140q12-9 24-3m31-7q15-9 29-5" fill="none" stroke="#513c2d" stroke-width="2.8" stroke-linecap="round" stroke-linejoin="round" /><ellipse cx="244" cy="137" rx="4" ry="3" fill="#2c352d" /><ellipse cx="300" cy="127" rx="4.6" ry="3.2" fill="#29332c" /><path d="M260 137q-3 15-16 23-8 8 3 11 12 5 20-5l-1-9" fill="url(#skin)" stroke="#a27151" stroke-width="2" /><path d="m246 170 11 1" fill="none" stroke="#674831" stroke-width="2.6" stroke-linecap="round" stroke-linejoin="round" /><path d="M251 188q25-13 53-8l-12 19-17 8-18-8Z" fill="#754932" /><path d="m258 186 38-3-8 9-22 3Z" fill="#f4d6a3" /><path d="M265 206q16 5 28-3" fill="none" stroke="#ecc28f" stroke-width="2.5" stroke-linecap="round" stroke-linejoin="round" /><path d="m257 174-10 12 10 17m46-32 13 14-7 16" fill="none" stroke="#ab7854" stroke-width="1.4" stroke-linecap="round" stroke-linejoin="round" /><path d="M251 93q26-9 54-4m-51 14 45-5M232 150q13 7 25-2m37-9q14 7 27-4m-54 67 15-1m-16 12 17-4" fill="none" stroke="#ae7a58" stroke-width="1.4" stroke-linecap="round" stroke-linejoin="round" /><path d="M225 130q-10-49 18-77 31-29 63-19 37 4 49 42l-4 65-14-24-6-43q-27-20-59-10l-23 18-15 41Z" fill="#2a3a38" stroke="#243933" stroke-width="2.5" /><path d="M241 67q24-24 48-25l23 14-32-1-32 20Z" fill="#697964" opacity=".6"/><path d="M242 72q27-20 51-20m-43 26 36-17m37-3 13 21" fill="none" stroke="#697964" stroke-width="1.8" stroke-linecap="round" stroke-linejoin="round" /><path d="M226 87q-25-50 46-65 72-10 87 49l-7 24-61-5Z" fill="url(#cloth)" stroke="#2a4237" stroke-width="2.4" /><path d="M216 81q65-15 146 0l-23 18-59-8-66 15Z" fill="#304938" stroke="#243931" stroke-width="2.5" /><path d="M238 52q23-19 48-20" fill="none" stroke="#c9c59d" stroke-width="2" stroke-linecap="round" stroke-linejoin="round" opacity=".55"/><use href="#star" transform="translate(288 69) scale(.7)" fill="#a3523e"/></g>
<path d="M231 211q-36-5-57-36l14-38-35 11-15 71q29 55 91 63Z" fill="url(#cloth)" stroke="#314b3a" stroke-width="3" /><path d="m152 141 30-10 19 20-43 14Z" fill="#9ba388" stroke="#3b573c" stroke-width="2" /><path d="M370 214q57 14 73 61l28 85h-50l-39-73Z" fill="url(#cloth)" stroke="#304c39" stroke-width="2.5" />
<g transform="translate(35 15)"><path d="M132 127 141 104q8-14 24-16l52-1q9 2 2 6l-36 5 29 1q7 4 0 5l-30 1 23 3q7 3 0 5l-31-1-15 12-7 16Z" fill="url(#skin)" stroke="#9d7454" stroke-width="2" /><path d="m164 106 20-2m-32 5-8 16" fill="none" stroke="#bd8b61" stroke-width="1.5" stroke-linecap="round" stroke-linejoin="round" />
</g><rect width="600" height="360" fill="url(#vignette)"/><rect width="600" height="360" fill="transparent" filter="url(#grain)"/></g>
</svg>
